<?xml version="1.0" encoding="utf-8"?>
<!-- Generator: Adobe Illustrator 16.0.3, SVG Export Plug-In . SVG Version: 6.00 Build 0)  -->
<!DOCTYPE svg PUBLIC "-//W3C//DTD SVG 1.1//EN" "http://www.w3.org/Graphics/SVG/1.1/DTD/svg11.dtd">
<svg version="1.1" id="Layer_1" xmlns="http://www.w3.org/2000/svg" xmlns:xlink="http://www.w3.org/1999/xlink" x="0px" y="0px"
	 width="283.46px" height="283.46px" viewBox="0 0 283.46 283.46" enable-background="new 0 0 283.46 283.46" xml:space="preserve">
<g>
	<rect fill="#DE2328" width="283.46" height="283.46"/>
	<g>
		<g>
			<g>
				<path fill="#FFFFFF" d="M231.523,147.672h-2.525c-0.246,0-0.418,0.189-0.418,0.436v2.525c0,0.248,0.172,0.455,0.418,0.455h2.525
					c0.247,0,0.454-0.207,0.454-0.455v-2.525C231.978,147.861,231.771,147.672,231.523,147.672z"/>
				<g>
					<path fill="#FFFFFF" d="M238.461,135.358v1.773c0.505-0.788,1.054-1.309,1.641-1.548c0.619-0.257,1.335-0.386,2.218-0.386
						c2.296,0,3.697,0.562,4.243,1.683c0.546,1.122,0.819,2.685,0.819,4.704c0,1.811-0.248,3.357-0.747,4.639
						c-0.497,1.301-1.871,1.932-4.115,1.932c-0.881,0-1.652-0.09-2.277-0.307c-0.624-0.201-1.178-0.717-1.659-1.535l-0.048,7.072
						h-3.001v-18.026H238.461z M238.559,142.161c0,1.091,0.142,1.97,0.497,2.652c0.32,0.68,1.123,1.031,2.373,1.031
						c1.363,0,2.177-0.334,2.443-0.967c0.264-0.65,0.379-1.543,0.379-2.716v-0.729c0-0.21,0-0.41,0-0.635
						c0-0.208-0.007-0.44-0.023-0.683c-0.033-0.352-0.08-0.713-0.143-1.048c-0.097-0.354-0.202-0.635-0.379-0.843
						c-0.143-0.225-0.36-0.377-0.617-0.473c-0.257-0.08-0.522-0.153-0.795-0.185c-0.111-0.016-0.261-0.023-0.38-0.023
						c-0.153,0-0.269,0-0.414,0h-0.143c-0.689,0-1.273,0.072-1.744,0.231c-0.507,0.179-0.814,0.756-0.961,1.749
						c-0.016,0.145-0.031,0.293-0.047,0.446c-0.016,0.152-0.023,0.301-0.023,0.463c-0.017,0.159-0.023,0.315-0.023,0.467
						c0,0.153,0,0.3,0,0.445V142.161z"/>
					<path fill="#FFFFFF" d="M253.021,148.039h-3.071v-18.167h3.071V148.039z"/>
				</g>
			</g>
			<g>
				<path fill="#FFFFFF" d="M41.097,135.205c0-1.07-0.226-1.782-0.657-2.151c-0.434-0.351-1.178-0.544-2.252-0.544h-0.954
					c-0.16,0-0.333,0-0.533,0c-0.185,0-0.381,0.008-0.557,0.042c-0.289,0.017-0.577,0.051-0.866,0.107
					c-0.288,0.072-0.545,0.173-0.77,0.301c-0.208,0.144-0.367,0.328-0.48,0.567c-0.113,0.223-0.201,0.478-0.249,0.75
					c0,0.112-0.005,0.221-0.012,0.308c-0.008,0.104-0.012,0.205-0.012,0.283c0,0.917,0.171,1.547,0.533,1.876
					c0.344,0.329,0.998,0.535,1.943,0.583c0.079,0,0.171,0.003,0.261,0.012c0.071,0.008,0.164,0.01,0.25,0.01
					c0.235,0.018,0.472,0.047,0.688,0.054c0.231,0.007,0.46,0.013,0.667,0.013c1.779,0.046,3.348,0.3,4.706,0.742
					c1.364,0.44,2.046,1.882,2.046,4.291c0,1.541-0.249,2.824-0.73,3.81c-0.497,0.988-1.628,1.57-3.408,1.744
					c-0.29,0.016-0.574,0.047-0.854,0.053c-0.281,0.008-0.557,0.02-0.829,0.037c-0.289,0.016-0.574,0.023-0.854,0.023
					c-0.281,0-0.564,0-0.854,0c-2.086,0-3.795-0.238-5.1-0.695c-1.324-0.457-1.973-1.947-1.973-4.451c0-0.049,0-0.117,0-0.173
					c0-0.074,0.014-0.125,0.029-0.191c0-0.047,0-0.098,0-0.171c0-0.056,0-0.125,0-0.173h3.291c0,0.834,0.105,1.551,0.339,2.143
					c0.232,0.611,0.845,0.918,1.854,0.932c0.449,0.018,0.882,0.025,1.314,0.025c0.432,0,0.864,0,1.297,0
					c1.074,0,1.86-0.156,2.34-0.469c0.499-0.332,0.741-1.041,0.741-2.149c0-1.188-0.319-1.895-0.936-2.122
					c-0.633-0.223-1.439-0.327-2.417-0.362c-0.176,0-0.352,0-0.544,0c-0.176,0-0.36-0.007-0.569-0.022
					c-0.079,0-0.18-0.004-0.285-0.012c-0.101-0.008-0.188-0.02-0.284-0.036c-1.924-0.129-3.427-0.445-4.493-0.966
					c-1.083-0.523-1.625-1.971-1.625-4.381c0-1.523,0.321-2.684,0.979-3.504c0.659-0.818,1.772-1.282,3.344-1.411
					c0.482-0.049,0.95-0.073,1.425-0.089c0.486-0.016,0.954-0.023,1.436-0.023c1.859,0,3.485,0.19,4.864,0.591
					c1.379,0.403,2.067,1.767,2.067,4.094v0.705H41.097z"/>
				<path fill="#FFFFFF" d="M58.531,143.986c0.015,0.08,0.023,0.148,0.023,0.236c0,0.09,0,0.164,0,0.262
					c0,1.715-0.573,2.771-1.721,3.15c-1.164,0.359-2.443,0.557-3.854,0.557c-2.697,0-4.382-0.51-5.072-1.512
					c-0.689-1.02-1.026-2.754-1.026-5.24c0-2.228,0.352-3.836,1.087-4.807c0.726-0.969,2.274-1.445,4.649-1.445
					c2.375,0,3.968,0.424,4.75,1.274c0.79,0.849,1.188,2.468,1.188,4.838l-0.023,0.93h-8.63c0,1.331,0.148,2.297,0.428,2.883
					c0.28,0.604,1.174,0.895,2.698,0.895c0.643,0,1.216-0.105,1.737-0.297c0.505-0.209,0.766-0.688,0.766-1.475v-0.25H58.531z
					 M55.085,137.958c-0.329-0.384-1.119-0.568-2.354-0.568c-1.061,0-1.775,0.152-2.16,0.455c-0.369,0.303-0.585,1-0.617,2.091
					c0,0.032,0,0.081,0,0.113c0,0.031,0,0.055,0,0.07c-0.017,0.05-0.024,0.082-0.024,0.113c0,0.032,0,0.081,0,0.112h5.667
					C55.596,139.126,55.414,138.324,55.085,137.958z"/>
				<path fill="#FFFFFF" d="M64.323,135.338l-0.065,1.685h0.113c0.321-0.643,0.781-1.107,1.35-1.412
					c0.569-0.304,1.215-0.475,1.919-0.475c1.41,0,2.353,0.388,2.809,1.16c0.456,0.754,0.693,1.783,0.693,3.051v0.865h-2.799v-0.57
					c0-0.658-0.085-1.184-0.237-1.559c-0.152-0.392-0.639-0.6-1.443-0.6c-0.786,0-1.35,0.239-1.71,0.694
					c-0.344,0.475-0.519,1.063-0.519,1.785c0,0.049,0,0.085,0,0.125c0,0.041,0.011,0.093,0.028,0.125c0,0.048,0,0.109,0,0.148
					c0,0.04,0,0.093,0,0.125v7.573h-3.049v-12.72H64.323z"/>
				<path fill="#FFFFFF" d="M88.888,148.059h-4.37l-2.319-10.211l-2.294,10.211h-4.401l-2.883-12.714h2.984l2.159,10.646h0.071
					l2.455-10.646h3.818l2.414,10.646h0.113l2.182-10.646h2.959L88.888,148.059z"/>
				<path fill="#FFFFFF" d="M104.514,143.986c0.016,0.08,0.024,0.148,0.024,0.236c0,0.09,0,0.164,0,0.262
					c0,1.715-0.573,2.771-1.72,3.15c-1.16,0.359-2.445,0.557-3.856,0.557c-2.679,0-4.381-0.51-5.071-1.512
					c-0.69-1.02-1.026-2.754-1.026-5.24c0-2.228,0.369-3.836,1.091-4.807c0.722-0.969,2.271-1.445,4.645-1.445
					c2.392,0,3.968,0.424,4.764,1.274c0.776,0.849,1.174,2.468,1.174,4.838l-0.024,0.93h-8.623c0,1.331,0.141,2.297,0.422,2.883
					c0.28,0.604,1.174,0.895,2.698,0.895c0.642,0,1.215-0.105,1.737-0.297c0.522-0.209,0.779-0.688,0.779-1.475v-0.25H104.514z
					 M101.068,137.958c-0.328-0.384-1.119-0.568-2.355-0.568c-1.042,0-1.773,0.152-2.142,0.455c-0.386,0.303-0.603,1-0.635,2.091
					c0,0.032,0,0.081,0,0.113c0,0.031,0,0.055,0,0.07c-0.016,0.05-0.023,0.082-0.023,0.113c0,0.032,0,0.081,0,0.112h5.666
					C101.579,139.126,101.415,138.324,101.068,137.958z"/>
				<path fill="#FFFFFF" d="M110.01,135.338l-0.066,1.685h0.113c0.338-0.643,0.782-1.107,1.351-1.412
					c0.569-0.304,1.215-0.475,1.92-0.475c1.411,0,2.352,0.388,2.809,1.16c0.456,0.754,0.693,1.783,0.693,3.051v0.865h-2.797v-0.57
					c0-0.658-0.086-1.184-0.238-1.559c-0.152-0.392-0.627-0.6-1.444-0.6c-0.785,0-1.35,0.239-1.709,0.694
					c-0.345,0.475-0.516,1.063-0.516,1.785c0,0.049,0,0.085,0,0.125c0,0.041,0.007,0.093,0.024,0.125c0,0.048,0,0.109,0,0.148
					c0,0.04,0,0.093,0,0.125v7.573h-3.049v-12.72H110.01z"/>
			</g>
			<path fill="#FFFFFF" d="M244.461,157.281c-0.031-0.055-0.063-0.107-0.1-0.176c-0.034-0.051-0.104-0.117-0.136-0.164
				c-0.187-0.283-0.428-0.482-0.686-0.555c-0.257-0.094-0.591-0.131-1.035-0.131c-1.087,0-1.751,0.289-2.027,0.869
				c-0.277,0.578-0.435,1.348-0.435,2.283c0,0.256,0.005,0.49,0.013,0.74c0.009,0.252,0.027,0.502,0.066,0.74
				c0.104,0.66,0.382,1.109,0.817,1.367c0.474,0.26,1.005,0.389,1.599,0.389c0.407,0,0.757-0.053,1.085-0.176
				c0.326-0.123,0.585-0.375,0.767-0.756h0.038v1.334c0,0.531-0.152,0.857-0.389,0.996c-0.271,0.139-0.664,0.217-1.114,0.217
				c-0.405,0-0.698-0.068-0.913-0.186c-0.178-0.104-0.305-0.377-0.305-0.805l-1.417-0.029v0.137c0,0.064,0.002,0.105,0.006,0.164
				c0.005,0.037,0.006,0.076,0.006,0.115c0.008,0.16,0.024,0.303,0.047,0.445c0.023,0.143,0.099,0.277,0.151,0.389
				c0.133,0.309,0.363,0.508,0.656,0.629c0.294,0.127,0.602,0.191,0.961,0.242c0.133,0.006,0.302,0.014,0.434,0.02
				c0.169,0.002,0.293,0.004,0.446,0.004c1.038,0,1.752-0.17,2.213-0.527c0.426-0.34,0.657-1.041,0.657-2.102v-6.412h-1.439
				L244.461,157.281z M244.402,159.564c0,0.57-0.056,1.025-0.198,1.387c-0.109,0.344-0.54,0.531-1.219,0.531
				c-0.617,0-1.026-0.137-1.154-0.414c-0.163-0.277-0.229-0.693-0.229-1.246v-0.82c0-0.611,0.076-1.02,0.265-1.229
				c0.151-0.227,0.543-0.322,1.105-0.322c0.68,0,1.112,0.18,1.225,0.557c0.149,0.359,0.205,0.844,0.205,1.422V159.564z
				 M107.098,159.816c0,0.563-0.093,0.984-0.263,1.266c-0.169,0.281-0.576,0.42-1.218,0.42c-0.499,0-0.814-0.109-0.937-0.309
				c-0.115-0.219-0.176-0.541-0.176-1.002v-3.848H103v4.205c0,0.723,0.174,1.262,0.526,1.621c0.344,0.34,0.878,0.51,1.616,0.51
				c0.466,0,0.871-0.063,1.194-0.205c0.341-0.141,0.608-0.434,0.797-0.896h0.047l-0.024,1.031h1.423v-6.266h-1.482V159.816z
				 M98.001,159.115c-0.531-0.197-1.104-0.301-1.722-0.316h-0.134c-0.057,0-0.095-0.004-0.135-0.012h-0.327
				c-0.091,0-0.196-0.004-0.299-0.014c-0.301-0.014-0.526-0.063-0.655-0.162c-0.114-0.1-0.188-0.303-0.188-0.645
				c0-0.326,0.107-0.516,0.305-0.592c0.215-0.076,0.432-0.105,0.686-0.105h0.159c0.064,0,0.115-0.006,0.188-0.012h0.317
				c0.27,0,0.491,0.066,0.668,0.164c0.17,0.115,0.263,0.328,0.263,0.621h1.43c0-0.023,0.001-0.063,0.005-0.082
				c0.005-0.02,0.007-0.039,0.007-0.053v-0.137c0-0.584-0.193-0.98-0.598-1.188c-0.405-0.186-0.844-0.307-1.337-0.336
				c-0.142-0.008-0.285-0.012-0.427-0.012H95.79c-0.681,0-1.292,0.078-1.852,0.27c-0.558,0.172-0.837,0.693-0.837,1.549
				c0,0.943,0.273,1.5,0.806,1.67c0.542,0.168,1.181,0.268,1.894,0.273c0.063,0,0.111,0.002,0.158,0.008
				c0.065,0.004,0.112,0.006,0.162,0.006h0.318c0.285,0.008,0.494,0.047,0.653,0.141c0.159,0.092,0.225,0.287,0.225,0.619
				c0,0.422-0.112,0.66-0.317,0.752c-0.223,0.092-0.515,0.129-0.896,0.129h-0.451c-0.396,0-0.675-0.076-0.837-0.211
				c-0.162-0.119-0.252-0.391-0.252-0.822h-1.517v0.348c0,0.713,0.242,1.166,0.71,1.377c0.482,0.191,1.011,0.307,1.581,0.322
				c0.118,0.008,0.219,0.012,0.333,0.012h0.339c0.783,0,1.45-0.1,1.986-0.334c0.534-0.234,0.8-0.807,0.8-1.734
				C98.797,159.785,98.534,159.293,98.001,159.115z M114.27,157.281c-0.049-0.055-0.082-0.107-0.118-0.176
				c-0.052-0.051-0.085-0.117-0.116-0.164c-0.223-0.283-0.446-0.482-0.705-0.555c-0.256-0.094-0.608-0.131-1.035-0.131
				c-1.069,0-1.75,0.289-2.027,0.869c-0.276,0.578-0.416,1.348-0.416,2.283c0,0.256,0.004,0.49,0.011,0.74
				c0.008,0.252,0.028,0.502,0.059,0.74c0.095,0.66,0.372,1.109,0.826,1.367c0.473,0.26,0.989,0.389,1.6,0.389
				c0.371,0,0.739-0.053,1.081-0.176c0.331-0.123,0.586-0.375,0.751-0.756h0.037v1.334c0,0.531-0.135,0.857-0.404,0.996
				c-0.27,0.139-0.629,0.217-1.113,0.217c-0.372,0-0.684-0.068-0.879-0.186c-0.214-0.104-0.304-0.377-0.304-0.805l-1.435-0.029
				v0.137c0,0.064,0.001,0.105,0.005,0.164c0.009,0.037,0.017,0.076,0.017,0.115c0.013,0.16,0.029,0.303,0.053,0.445
				c0.023,0.143,0.062,0.277,0.135,0.389c0.15,0.309,0.38,0.508,0.673,0.629c0.293,0.127,0.601,0.191,0.926,0.242
				c0.167,0.006,0.318,0.014,0.468,0.02c0.149,0.002,0.291,0.004,0.426,0.004c1.022,0,1.771-0.17,2.215-0.527
				c0.442-0.34,0.673-1.041,0.673-2.102v-6.412h-1.458L114.27,157.281z M114.194,159.564c0,0.57-0.054,1.025-0.181,1.387
				c-0.127,0.344-0.54,0.531-1.236,0.531c-0.635,0-1.019-0.137-1.171-0.414c-0.146-0.277-0.211-0.693-0.211-1.246v-0.82
				c0-0.611,0.077-1.02,0.264-1.229c0.17-0.227,0.544-0.322,1.107-0.322c0.696,0,1.111,0.18,1.241,0.557
				c0.129,0.359,0.187,0.844,0.187,1.422V159.564z M89.599,156.248c-0.381,0-0.739,0.053-1.047,0.18
				c-0.313,0.127-0.563,0.381-0.761,0.762h-0.046v-3.531h-1.492v8.951h1.492l-0.035-0.943c0.229,0.396,0.498,0.66,0.793,0.791
				c0.306,0.131,0.669,0.189,1.137,0.189c1.141,0,1.832-0.303,2.078-0.92c0.228-0.604,0.35-1.4,0.35-2.375
				c0-0.998-0.133-1.756-0.403-2.297C91.395,156.516,90.706,156.248,89.599,156.248z M90.575,159.725
				c0,0.547-0.058,0.977-0.193,1.289c-0.134,0.33-0.526,0.486-1.157,0.486c-0.706,0-1.134-0.164-1.251-0.512
				c-0.132-0.326-0.205-0.807-0.205-1.398v-0.258c0-0.584,0.075-1.047,0.21-1.398c0.134-0.336,0.524-0.521,1.193-0.521
				c0.657,0,1.056,0.148,1.198,0.469c0.143,0.301,0.205,0.734,0.205,1.307V159.725z M36.544,157.74
				c-0.673-0.225-1.437-0.352-2.325-0.373c-0.11,0-0.208-0.004-0.323-0.006c-0.116-0.006-0.232-0.01-0.352-0.02
				c-0.039,0-0.076,0-0.12-0.006c-0.044-0.004-0.081-0.004-0.12-0.004c-0.477-0.041-0.791-0.127-0.961-0.289
				c-0.187-0.182-0.264-0.486-0.264-0.932c0-0.039,0.003-0.098,0.007-0.141c0.002-0.061,0.005-0.105,0.005-0.152
				c0.023-0.135,0.059-0.262,0.123-0.381c0.047-0.117,0.135-0.201,0.229-0.281c0.111-0.072,0.238-0.115,0.381-0.141
				c0.142-0.029,0.285-0.045,0.428-0.055c0.095-0.025,0.192-0.027,0.275-0.027h0.744c0.514,0,0.891,0.096,1.115,0.268
				c0.204,0.193,0.316,0.535,0.316,1.066h1.639v-0.355c0-1.135-0.35-1.809-1.031-1.996c-0.677-0.189-1.47-0.291-2.398-0.291
				c-0.238,0-0.46,0.002-0.704,0.01c-0.242,0.01-0.478,0.02-0.703,0.037c-0.785,0.072-1.335,0.291-1.651,0.693
				c-0.316,0.404-0.492,0.975-0.492,1.734c0,1.176,0.267,1.908,0.803,2.148c0.534,0.26,1.269,0.416,2.22,0.488
				c0.057,0.008,0.097,0.014,0.141,0.018c0.06,0.004,0.101,0.006,0.14,0.006c0.103,0.008,0.202,0.012,0.281,0.012h0.271
				c0.491,0.01,0.89,0.076,1.194,0.17c0.305,0.111,0.458,0.469,0.458,1.053c0,0.547-0.123,0.889-0.354,1.059
				c-0.243,0.154-0.632,0.223-1.163,0.223h-0.634c-0.222,0-0.444-0.002-0.65-0.012c-0.508-0.008-0.811-0.156-0.926-0.449
				c-0.114-0.293-0.165-0.654-0.165-1.064h-1.627v0.168c-0.009,0.041-0.012,0.066-0.012,0.094v0.094
				c0,1.234,0.335,1.961,0.973,2.195c0.654,0.217,1.493,0.334,2.515,0.334h0.436c0.129,0,0.281-0.004,0.425-0.014
				c0.132-0.008,0.262-0.014,0.406-0.018c0.132-0.002,0.283-0.01,0.427-0.016c0.871-0.098,1.43-0.383,1.674-0.879
				c0.23-0.479,0.352-1.109,0.352-1.859C37.546,158.652,37.218,157.949,36.544,157.74z M117.063,162.609h1.475v-6.266h-1.475
				V162.609z M117.063,154.961h1.475v-1.303h-1.475V154.961z M49.128,159.115c-0.531-0.197-1.105-0.301-1.739-0.316H47.26
				c-0.045,0-0.084-0.004-0.137-0.012h-0.314c-0.102,0-0.196-0.004-0.299-0.014c-0.3-0.014-0.524-0.063-0.657-0.162
				c-0.13-0.1-0.187-0.303-0.187-0.645c0-0.326,0.108-0.516,0.305-0.592c0.215-0.076,0.432-0.105,0.687-0.105h0.159
				c0.064,0,0.115-0.006,0.187-0.012h0.317c0.271,0,0.481,0.066,0.67,0.164c0.169,0.115,0.262,0.328,0.262,0.621h1.43
				c0-0.023,0.002-0.063,0.006-0.082c0.003-0.02,0.007-0.039,0.007-0.053v-0.137c0-0.584-0.195-0.98-0.599-1.188
				c-0.405-0.186-0.845-0.307-1.336-0.336c-0.143-0.008-0.286-0.012-0.428-0.012h-0.416c-0.683,0-1.294,0.078-1.856,0.27
				c-0.566,0.172-0.848,0.693-0.848,1.549c0,0.943,0.271,1.5,0.816,1.67c0.546,0.168,1.185,0.268,1.896,0.273
				c0.048,0,0.112,0.002,0.159,0.008c0.064,0.004,0.112,0.006,0.159,0.006h0.322c0.284,0.008,0.493,0.047,0.644,0.141
				c0.152,0.092,0.234,0.287,0.234,0.619c0,0.422-0.112,0.66-0.316,0.752c-0.223,0.092-0.515,0.129-0.896,0.129H46.78
				c-0.397,0-0.676-0.076-0.838-0.211c-0.162-0.119-0.251-0.391-0.251-0.822h-1.516v0.348c0,0.713,0.24,1.166,0.707,1.377
				c0.484,0.191,1.007,0.307,1.582,0.322c0.106,0.008,0.219,0.012,0.333,0.012h0.327c0.796,0,1.463-0.1,1.999-0.334
				c0.536-0.234,0.803-0.807,0.803-1.734C49.924,159.785,49.658,159.293,49.128,159.115z M220.422,154.961h1.513v-1.303h-1.513
				V154.961z M128.984,160.299h-0.048l-2.424-6.641h-2.763v8.951h1.674l-0.069-7.496l2.846,7.496h1.542l2.826-7.549l-0.063,7.549
				h1.692v-8.951h-2.828L128.984,160.299z M41.016,161.666l-1.587-5.316h-1.552l2.064,6.26h0.723
				c-0.007,0.047-0.017,0.119-0.033,0.182c-0.024,0.08-0.035,0.139-0.043,0.211c-0.063,0.324-0.182,0.621-0.34,0.891
				c-0.159,0.268-0.424,0.404-0.795,0.404h-0.088c-0.024,0-0.047-0.004-0.07-0.012c-0.032,0-0.077-0.002-0.101-0.006
				c-0.022-0.006-0.046-0.006-0.07-0.006v1.076c0.048,0.01,0.093,0.016,0.152,0.018c0.043,0.006,0.089,0.01,0.152,0.02h0.305
				c0.839,0,1.404-0.232,1.692-0.676c0.292-0.443,0.526-1.012,0.692-1.709l1.663-6.652h-1.541L41.016,161.666z M70.307,156.268
				c-0.435,0-0.831,0.082-1.186,0.229c-0.342,0.146-0.608,0.441-0.781,0.885H68.29c-0.081-0.412-0.293-0.693-0.605-0.844
				c-0.313-0.15-0.66-0.242-1.007-0.258c-0.065-0.008-0.111-0.012-0.161-0.012h-0.172c-0.42,0-0.777,0.076-1.106,0.193
				c-0.313,0.135-0.583,0.396-0.798,0.783l-0.027-0.9h-1.442v6.266h1.492v-3.629c0-0.508,0.087-0.891,0.297-1.148
				c0.194-0.242,0.564-0.367,1.094-0.367c0.489,0,0.806,0.084,0.9,0.291c0.11,0.189,0.183,0.502,0.199,0.955v3.898h1.528v-3.682
				c0-0.586,0.109-0.977,0.318-1.154c0.222-0.178,0.448-0.281,0.709-0.299c0.073-0.008,0.126-0.01,0.199-0.01h0.17
				c0.483,0,0.803,0.092,0.917,0.309c0.116,0.201,0.185,0.537,0.185,0.973v3.863h1.528v-4.16c0-0.779-0.167-1.334-0.521-1.666
				C71.651,156.434,71.091,156.268,70.307,156.268z M85.132,156.303c-0.054-1.262-0.485-2.02-1.288-2.293
				c-0.805-0.271-1.729-0.408-2.759-0.408c-1.728,0-2.748,0.404-3.076,1.195c-0.345,0.807-0.509,1.967-0.509,3.445v0.428
				c-0.007,0.086-0.011,0.176-0.011,0.246v0.244c0,1.424,0.281,2.371,0.842,2.824c0.563,0.467,1.522,0.682,2.877,0.682
				c1.924,0,3.063-0.338,3.419-1.029c0.365-0.695,0.541-1.879,0.541-3.535v-0.598c0-0.213-0.001-0.408-0.006-0.598
				C85.158,156.699,85.147,156.51,85.132,156.303z M83.446,158.291c0,0.352-0.008,0.725-0.023,1.096
				c-0.039,0.83-0.219,1.336-0.551,1.547c-0.35,0.191-0.912,0.299-1.705,0.299c-0.593,0-1.042-0.08-1.349-0.225
				c-0.321-0.143-0.498-0.549-0.543-1.223c-0.008-0.117-0.014-0.25-0.017-0.379c-0.01-0.133-0.016-0.266-0.016-0.398v-1.162
				c0-0.096,0.012-0.205,0.021-0.309v-0.123c0-0.918,0.084-1.555,0.289-1.875c0.184-0.338,0.86-0.498,2.009-0.498
				c0.849,0,1.376,0.15,1.588,0.451c0.193,0.318,0.299,0.885,0.299,1.717V158.291z M252.482,156.832
				c-0.402-0.387-1.21-0.574-2.427-0.574c-1.133,0-1.896,0.201-2.274,0.639c-0.371,0.402-0.574,1.184-0.574,2.309v0.615
				c0,1.188,0.25,1.969,0.751,2.313c0.495,0.361,1.27,0.533,2.379,0.533c1.341,0,2.141-0.291,2.398-0.871
				c0.257-0.582,0.369-1.428,0.369-2.537C253.104,158.029,252.92,157.221,252.482,156.832z M251.617,159.941
				c0,0.084-0.004,0.18-0.012,0.275c-0.009,0.189-0.028,0.371-0.061,0.561c-0.035,0.176-0.12,0.326-0.197,0.453
				c-0.073,0.111-0.199,0.176-0.312,0.215c-0.149,0.057-0.265,0.084-0.417,0.1c-0.072,0.008-0.139,0.014-0.207,0.014h-0.402
				c-0.626,0-0.988-0.162-1.115-0.48c-0.096-0.338-0.142-0.76-0.142-1.264v-0.691c0-0.092,0.004-0.188,0.013-0.264
				c0-0.088,0.003-0.178,0.011-0.254c0.009-0.092,0.016-0.166,0.022-0.262c0-0.025,0.004-0.049,0.007-0.09
				c0.004-0.021,0.01-0.045,0.018-0.068c0.023-0.105,0.053-0.207,0.088-0.293c0.035-0.104,0.123-0.195,0.193-0.258
				c0.063-0.08,0.144-0.125,0.276-0.152c0.099-0.027,0.233-0.059,0.334-0.059c0.038-0.01,0.081-0.012,0.159-0.012h0.64
				c0.039,0,0.082,0.002,0.164,0.012c0.108,0,0.214,0.033,0.348,0.064c0.097,0.031,0.214,0.082,0.285,0.17
				c0.087,0.104,0.147,0.236,0.219,0.404c0.035,0.166,0.061,0.338,0.076,0.537c0.008,0.113,0.012,0.201,0.012,0.299V159.941z
				 M54.107,160.225v0.295c0,0.283-0.033,0.531-0.117,0.725c-0.065,0.193-0.282,0.299-0.613,0.299c-0.34,0-0.527-0.07-0.589-0.246
				c-0.048-0.158-0.071-0.367-0.071-0.645v-3.178h2.382v-1.131h-2.382v-1.424h-1.493v1.424h-0.809v1.131h0.809v3.371
				c0,0.762,0.164,1.244,0.509,1.48c0.327,0.221,0.861,0.34,1.58,0.34c0.799,0,1.341-0.166,1.627-0.496
				c0.285-0.35,0.427-0.893,0.427-1.629v-0.156c0-0.066-0.004-0.111-0.011-0.16H54.107z M61.703,159.287
				c0-1.18-0.206-1.961-0.581-2.381c-0.393-0.418-1.179-0.639-2.342-0.639c-1.181,0-1.935,0.246-2.299,0.715
				c-0.353,0.488-0.539,1.264-0.539,2.363c0,1.227,0.166,2.08,0.515,2.584c0.332,0.502,1.163,0.736,2.494,0.736
				c0.696,0,1.332-0.078,1.902-0.273c0.565-0.178,0.85-0.699,0.85-1.545v-0.129c0-0.035-0.005-0.068-0.013-0.117h-1.481v0.123
				c0,0.387-0.129,0.633-0.387,0.719c-0.257,0.105-0.54,0.164-0.85,0.164c-0.744,0-1.2-0.162-1.34-0.451
				c-0.138-0.285-0.199-0.754-0.199-1.42h4.257L61.703,159.287z M57.447,158.805v-0.045c0-0.018,0.004-0.031,0.012-0.047v-0.1
				c0.015-0.539,0.122-0.875,0.303-1.041c0.198-0.15,0.542-0.217,1.066-0.217c0.6,0,0.991,0.098,1.152,0.279
				c0.179,0.182,0.251,0.578,0.251,1.17H57.447z M229.757,156.244c-0.477,0-0.849,0.07-1.148,0.223
				c-0.3,0.172-0.574,0.447-0.818,0.826l-0.013-0.949h-1.417v6.266h1.476v-3.752c0-0.49,0.148-0.838,0.376-1.078
				c0.26-0.238,0.647-0.357,1.088-0.357c0.523,0,0.844,0.105,0.997,0.316c0.117,0.195,0.21,0.541,0.21,1.01v3.861h1.475v-4.283
				c0-0.795-0.191-1.34-0.544-1.637C231.087,156.393,230.525,156.244,229.757,156.244z M187.776,159.816
				c0,0.563-0.076,0.984-0.264,1.266c-0.152,0.281-0.577,0.42-1.2,0.42c-0.508,0-0.813-0.109-0.918-0.309
				c-0.143-0.219-0.193-0.541-0.193-1.002v-3.848h-1.487v4.205c0,0.723,0.151,1.262,0.525,1.621c0.34,0.34,0.878,0.51,1.581,0.51
				c0.486,0,0.872-0.063,1.23-0.205c0.324-0.141,0.589-0.434,0.795-0.896h0.048l-0.022,1.031h1.416v-6.266h-1.511V159.816z
				 M172.89,156.244c-0.468,0-0.871,0.07-1.174,0.223c-0.302,0.172-0.574,0.447-0.821,0.826l-0.012-0.949h-1.417v6.266h1.511v-3.752
				c0-0.49,0.114-0.838,0.375-1.078c0.261-0.238,0.612-0.357,1.089-0.357c0.523,0,0.844,0.105,0.96,0.316
				c0.153,0.195,0.211,0.541,0.211,1.01v3.861h1.514v-4.283c0-0.795-0.194-1.34-0.547-1.637
				C174.191,156.393,173.632,156.244,172.89,156.244z M180.795,157.281c-0.031-0.055-0.064-0.107-0.1-0.176
				c-0.036-0.051-0.104-0.117-0.136-0.164c-0.187-0.283-0.428-0.482-0.685-0.555c-0.258-0.094-0.591-0.131-1.036-0.131
				c-1.087,0-1.751,0.289-2.027,0.869c-0.276,0.578-0.434,1.348-0.434,2.283c0,0.256,0.003,0.49,0.012,0.74
				c0.007,0.252,0.026,0.502,0.09,0.74c0.082,0.66,0.357,1.109,0.794,1.367c0.472,0.26,1.005,0.389,1.598,0.389
				c0.408,0,0.758-0.053,1.086-0.176s0.584-0.375,0.768-0.756h0.035v1.334c0,0.531-0.151,0.857-0.387,0.996
				c-0.27,0.139-0.664,0.217-1.114,0.217c-0.406,0-0.698-0.068-0.913-0.186c-0.179-0.104-0.304-0.377-0.304-0.805l-1.418-0.029
				v0.137c0,0.064,0.002,0.105,0.006,0.164c0.005,0.037,0.005,0.076,0.005,0.115c0.008,0.16,0.024,0.303,0.048,0.445
				s0.098,0.277,0.152,0.389c0.133,0.309,0.361,0.508,0.656,0.629c0.292,0.127,0.601,0.191,0.96,0.242
				c0.133,0.006,0.301,0.014,0.435,0.02c0.169,0.002,0.291,0.004,0.444,0.004c1.039,0,1.753-0.17,2.215-0.527
				c0.425-0.34,0.656-1.041,0.656-2.102v-6.412h-1.441L180.795,157.281z M180.735,159.564c0,0.57-0.054,1.025-0.197,1.387
				c-0.11,0.344-0.539,0.531-1.219,0.531c-0.618,0-1.025-0.137-1.154-0.414c-0.164-0.277-0.229-0.693-0.229-1.246v-0.82
				c0-0.611,0.076-1.02,0.264-1.229c0.152-0.227,0.545-0.322,1.108-0.322c0.678,0,1.109,0.18,1.221,0.557
				c0.15,0.359,0.206,0.844,0.206,1.422V159.564z M140.464,156.65c-0.548-0.24-1.247-0.357-2.102-0.357
				c-0.746,0-1.356,0.096-1.868,0.27c-0.506,0.176-0.75,0.715-0.75,1.623h1.517v-0.203c0.008-0.053,0.016-0.111,0.023-0.188
				c0.008-0.059,0.024-0.131,0.046-0.178c0.074-0.111,0.151-0.199,0.269-0.242c0.12-0.043,0.247-0.09,0.381-0.105
				c0.088-0.008,0.156-0.012,0.24-0.012h0.2c0.516,0,0.856,0.088,1.06,0.246c0.186,0.158,0.287,0.512,0.287,1.018l-0.024,0.957
				c-0.008-0.008-0.014-0.018-0.021-0.027c-0.014-0.014-0.024-0.023-0.031-0.031c-0.048-0.088-0.117-0.156-0.176-0.24
				c-0.059-0.066-0.148-0.137-0.252-0.176c-0.12-0.064-0.247-0.098-0.362-0.117c-0.15-0.02-0.273-0.035-0.433-0.053
				c-0.095,0-0.205-0.02-0.317-0.023c-0.111-0.004-0.201-0.006-0.304-0.006c-0.72,0-1.29,0.135-1.704,0.404
				c-0.421,0.27-0.631,0.809-0.631,1.615c0,0.752,0.222,1.258,0.65,1.504c0.426,0.227,0.973,0.352,1.639,0.352
				c0.442,0,0.84-0.035,1.176-0.125c0.354-0.066,0.64-0.318,0.86-0.729l-0.035,0.783h1.476v-4.09
				C141.278,157.506,141.004,156.869,140.464,156.65z M139.779,160.713c0,0.389-0.132,0.639-0.393,0.738
				c-0.262,0.115-0.546,0.188-0.854,0.203h-0.269c-0.412,0-0.718-0.043-0.937-0.152c-0.201-0.105-0.31-0.391-0.31-0.848v-0.135
				c0.008-0.104,0.026-0.201,0.053-0.275c0.045-0.092,0.09-0.156,0.17-0.229c0.078-0.063,0.185-0.125,0.303-0.152
				c0.108-0.027,0.221-0.045,0.34-0.053c0.08-0.025,0.142-0.029,0.223-0.029h0.457c0.098,0,0.182,0.004,0.286,0.029
				c0.134,0.016,0.267,0.039,0.398,0.07c0.13,0.031,0.244,0.096,0.322,0.158c0.071,0.064,0.111,0.123,0.134,0.211
				c0.042,0.068,0.058,0.16,0.065,0.246c0.007,0.031,0.013,0.064,0.013,0.1V160.713z M220.422,162.609h1.513v-6.266h-1.513V162.609z
				 M216.784,156.248c-0.378,0-0.755,0.053-1.065,0.18c-0.309,0.127-0.561,0.381-0.727,0.762h-0.08v-3.531h-1.475v8.951h1.475
				l-0.036-0.943c0.248,0.396,0.516,0.66,0.808,0.791c0.293,0.131,0.69,0.189,1.124,0.189c1.14,0,1.85-0.303,2.096-0.92
				c0.246-0.604,0.351-1.4,0.351-2.375c0-0.998-0.118-1.756-0.386-2.297C218.599,156.516,217.894,156.248,216.784,156.248z
				 M217.778,159.725c0,0.547-0.095,0.977-0.212,1.289c-0.14,0.33-0.525,0.486-1.156,0.486c-0.722,0-1.12-0.164-1.27-0.512
				c-0.112-0.326-0.196-0.807-0.196-1.398v-0.258c0-0.584,0.087-1.047,0.201-1.398c0.154-0.336,0.54-0.521,1.229-0.521
				c0.641,0,1.021,0.148,1.182,0.469c0.126,0.301,0.223,0.734,0.223,1.307V159.725z M223.361,162.609h1.498v-8.951h-1.498V162.609z
				 M209.226,156.258c-1.134,0-1.903,0.201-2.275,0.639c-0.406,0.402-0.604,1.184-0.604,2.309v0.615
				c0,1.188,0.246,1.969,0.744,2.313c0.502,0.361,1.306,0.533,2.416,0.533c1.341,0,2.104-0.291,2.362-0.871
				c0.257-0.582,0.405-1.428,0.405-2.537c0-1.229-0.22-2.037-0.628-2.426C211.213,156.445,210.404,156.258,209.226,156.258z
				 M210.75,159.941c0,0.084-0.004,0.18-0.012,0.275c-0.008,0.189-0.026,0.371-0.059,0.561c-0.033,0.176-0.086,0.326-0.2,0.453
				c-0.07,0.111-0.161,0.176-0.312,0.215c-0.112,0.057-0.264,0.084-0.381,0.1c-0.07,0.008-0.174,0.014-0.242,0.014h-0.368
				c-0.661,0-1.021-0.162-1.113-0.48c-0.131-0.338-0.178-0.76-0.178-1.264v-0.691c0-0.092,0.005-0.188,0.012-0.264
				c0-0.088,0.005-0.178,0.013-0.254c0.008-0.092,0.016-0.166,0.022-0.262c0-0.025,0.003-0.049,0.007-0.09
				c0.005-0.021,0.01-0.045,0.017-0.068c0.024-0.105,0.088-0.207,0.125-0.293c0.036-0.104,0.087-0.195,0.158-0.258
				c0.097-0.08,0.177-0.125,0.275-0.152c0.133-0.027,0.232-0.059,0.362-0.059c0.048-0.01,0.087-0.012,0.131-0.012h0.639
				c0.074,0,0.117,0.002,0.165,0.012c0.109,0,0.247,0.033,0.346,0.064c0.133,0.031,0.219,0.082,0.287,0.17
				c0.121,0.104,0.183,0.236,0.218,0.404c0.035,0.166,0.062,0.338,0.076,0.537c0.008,0.113,0.012,0.201,0.012,0.299V159.941z
				 M199.784,160.299h-0.051l-2.421-6.641h-2.764v8.951h1.675l-0.071-7.496l2.848,7.496h1.521l2.847-7.549l-0.083,7.549h1.677
				v-8.951h-2.813L199.784,160.299z M238.979,159.287c0-1.18-0.169-1.961-0.579-2.381c-0.376-0.418-1.161-0.639-2.324-0.639
				s-1.936,0.246-2.311,0.715c-0.355,0.488-0.512,1.264-0.512,2.363c0,1.227,0.149,2.08,0.481,2.584
				c0.365,0.502,1.198,0.736,2.493,0.736c0.715,0,1.337-0.078,1.902-0.273c0.565-0.178,0.849-0.699,0.849-1.545v-0.129
				c0-0.035-0.004-0.068-0.011-0.117h-1.465v0.123c0,0.387-0.111,0.633-0.369,0.719c-0.257,0.105-0.54,0.164-0.85,0.164
				c-0.761,0-1.22-0.162-1.34-0.451c-0.157-0.285-0.217-0.754-0.217-1.42h4.24L238.979,159.287z M234.743,158.805v-0.045
				c0-0.018,0.003-0.031,0.013-0.047v-0.1c0.015-0.539,0.104-0.875,0.303-1.041c0.199-0.15,0.541-0.217,1.065-0.217
				c0.6,0,1.007,0.098,1.151,0.279c0.18,0.182,0.251,0.578,0.251,1.17H234.743z M166.575,154.961h1.475v-1.303h-1.475V154.961z
				 M145.819,156.244c-0.36,0-0.675,0.066-0.956,0.217c-0.28,0.168-0.493,0.389-0.658,0.715h-0.048l0.023-0.832h-1.439v6.266h1.5
				v-3.861c-0.008-0.018-0.013-0.035-0.013-0.07v-0.053c0-0.365,0.087-0.656,0.263-0.873c0.178-0.234,0.457-0.35,0.836-0.35
				c0.396,0,0.64,0.102,0.721,0.283c0.076,0.203,0.109,0.463,0.109,0.779v0.283h1.382v-0.43c0-0.635-0.109-1.125-0.334-1.508
				C146.973,156.428,146.498,156.244,145.819,156.244z M160.306,159.287c0-1.18-0.207-1.961-0.58-2.381
				c-0.375-0.418-1.159-0.639-2.323-0.639c-1.197,0-1.936,0.246-2.318,0.715c-0.349,0.488-0.539,1.264-0.539,2.363
				c0,1.227,0.185,2.08,0.515,2.584c0.332,0.502,1.163,0.736,2.495,0.736c0.714,0,1.336-0.078,1.901-0.273
				c0.565-0.178,0.85-0.699,0.85-1.545v-0.129c0-0.035-0.005-0.068-0.012-0.117h-1.464v0.123c0,0.387-0.147,0.633-0.405,0.719
				c-0.258,0.105-0.541,0.164-0.85,0.164c-0.725,0-1.185-0.162-1.34-0.451c-0.123-0.285-0.182-0.754-0.182-1.42h4.24
				L160.306,159.287z M156.069,158.805v-0.045c0-0.018,0.004-0.031,0.01-0.047v-0.1c0.016-0.539,0.105-0.875,0.304-1.041
				c0.2-0.15,0.544-0.217,1.067-0.217c0.6,0,0.97,0.098,1.151,0.279c0.18,0.182,0.251,0.578,0.251,1.17H156.069z M153.672,156.344
				h-1.699l-1.755,2.438h-0.367v-5.123h-1.485v8.951h1.485v-2.787h0.367l2.081,2.787h1.829l-2.683-3.316L153.672,156.344z
				 M166.575,162.609h1.475v-6.266h-1.475V162.609z M164.598,160.225v0.295c0,0.283-0.068,0.531-0.135,0.725
				s-0.283,0.299-0.613,0.299c-0.323,0-0.526-0.07-0.572-0.246c-0.048-0.158-0.071-0.367-0.071-0.645v-3.178h2.364v-1.131h-2.364
				v-1.424h-1.511v1.424h-0.809v1.131h0.809v3.371c0,0.762,0.182,1.244,0.509,1.48c0.327,0.221,0.859,0.34,1.598,0.34
				c0.8,0,1.314-0.166,1.627-0.496c0.287-0.35,0.409-0.893,0.409-1.629v-0.156c0-0.066-0.003-0.111-0.012-0.16H164.598z
				 M101.548,155.473l-0.043,0.041v-1.855H99.99v3.213l-0.25,0.244l-0.239,0.223v1.311l0.489-0.447v4.408h1.516v-5.357l0.838-0.762
				v-1.322l-0.795,0.795V155.473z"/>
			<g>
				<path fill="#FFFFFF" d="M127.87,121.498h3.398v-3.415h-3.398V121.498z M132.351,121.498h3.416v-3.415h-3.416V121.498z
					 M136.85,121.498h3.397v-3.415h-3.397V121.498z M141.337,121.498h3.41v-3.415h-3.41V121.498z M145.83,121.498h3.397v-3.415
					h-3.397V121.498z M123.371,125.931h3.416v-3.415h-3.416V125.931z M127.87,125.931h3.398v-3.415h-3.398V125.931z M145.83,125.931
					h3.397v-3.415h-3.397V125.931z M150.311,122.516v3.415h3.398v-3.415H150.311z M123.371,130.36h3.416v-3.417h-3.416V130.36z
					 M127.87,130.36h3.398v-3.417h-3.398V130.36z M127.87,134.794h3.398v-3.417h-3.398V134.794z M132.351,134.794h3.416v-3.417
					h-3.416V134.794z M136.85,134.794h3.397v-3.417h-3.397V134.794z M141.337,134.794h3.41v-3.417h-3.41V134.794z M145.83,134.794
					h3.397v-3.417h-3.397V134.794z M145.83,139.36h3.397v-3.416h-3.397V139.36z M150.311,139.36h3.398v-3.416h-3.398V139.36z
					 M123.371,143.793h3.416v-3.415h-3.416V143.793z M127.87,143.793h3.398v-3.415h-3.398V143.793z M145.83,143.793h3.397v-3.415
					h-3.397V143.793z M150.311,143.793h3.398v-3.415h-3.398V143.793z M127.87,148.223h3.398v-3.416h-3.398V148.223z
					 M132.351,148.223h3.416v-3.416h-3.416V148.223z M136.85,148.223h3.397v-3.416h-3.397V148.223z M141.337,148.223h3.41v-3.416
					h-3.41V148.223z M145.83,148.223h3.397v-3.416h-3.397V148.223z"/>
				<path fill="#FFFFFF" d="M200.203,121.498h3.434v-3.415h-3.434V121.498z M204.721,121.498h3.397v-3.415h-3.397V121.498z
					 M209.202,121.498h3.397v-3.415h-3.397V121.498z M213.683,121.498h3.398v-3.415h-3.398V121.498z M218.163,121.498h3.398v-3.415
					h-3.398V121.498z M195.723,125.931h3.398v-3.415h-3.398V125.931z M200.203,125.931h3.434v-3.415h-3.434V125.931z
					 M218.163,125.931h3.398v-3.415h-3.398V125.931z M222.645,122.516v3.415h3.434v-3.415H222.645z M195.723,130.36h3.398v-3.417
					h-3.398V130.36z M200.203,130.36h3.434v-3.417h-3.434V130.36z M200.203,134.794h3.434v-3.417h-3.434V134.794z M204.721,134.794
					h3.397v-3.417h-3.397V134.794z M209.202,134.794h3.397v-3.417h-3.397V134.794z M213.683,134.794h3.398v-3.417h-3.398V134.794z
					 M218.163,134.794h3.398v-3.417h-3.398V134.794z M218.163,139.36h3.398v-3.416h-3.398V139.36z M222.645,139.36h3.434v-3.416
					h-3.434V139.36z M195.723,143.793h3.398v-3.415h-3.398V143.793z M200.203,143.793h3.434v-3.415h-3.434V143.793z
					 M218.163,143.793h3.398v-3.415h-3.398V143.793z M222.645,143.793h3.434v-3.415h-3.434V143.793z M200.203,148.223h3.434v-3.416
					h-3.434V148.223z M204.721,148.223h3.397v-3.416h-3.397V148.223z M209.202,148.223h3.397v-3.416h-3.397V148.223z
					 M213.683,148.223h3.398v-3.416h-3.398V148.223z M218.163,148.223h3.398v-3.416h-3.398V148.223z"/>
				<path fill="#FFFFFF" d="M159.537,121.498h3.435v-3.415h-3.435V121.498z M186.495,118.083v3.415h3.397v-3.415H186.495z
					 M159.537,125.931h3.435v-3.415h-3.435V125.931z M164.054,125.931h3.398v-3.415h-3.398V125.931z M181.981,125.931h3.431v-3.415
					h-3.431V125.931z M186.495,125.931h3.397v-3.415h-3.397V125.931z M159.537,130.36h3.435v-3.417h-3.435V130.36z M164.054,130.36
					h3.398v-3.417h-3.398V130.36z M168.536,130.36h3.396v-3.417h-3.396V130.36z M177.498,130.36h3.434v-3.417h-3.434V130.36z
					 M181.981,130.36h3.431v-3.417h-3.431V130.36z M186.495,130.36h3.397v-3.417h-3.397V130.36z M159.537,134.794h3.435v-3.417
					h-3.435V134.794z M164.054,134.794h3.398v-3.417h-3.398V134.794z M168.536,134.794h3.396v-3.417h-3.396V134.794z
					 M173.017,134.794h3.397v-3.417h-3.397V134.794z M177.498,134.794h3.434v-3.417h-3.434V134.794z M181.981,134.794h3.431v-3.417
					h-3.431V134.794z M186.495,134.794h3.397v-3.417h-3.397V134.794z M159.537,139.36h3.435v-3.416h-3.435V139.36z M164.054,139.36
					h3.398v-3.416h-3.398V139.36z M173.017,139.36h3.397v-3.416h-3.397V139.36z M181.981,139.36h3.431v-3.416h-3.431V139.36z
					 M186.495,139.36h3.397v-3.416h-3.397V139.36z M159.537,143.793h3.435v-3.415h-3.435V143.793z M164.054,143.793h3.398v-3.415
					h-3.398V143.793z M181.981,143.793h3.431v-3.415h-3.431V143.793z M186.495,143.793h3.397v-3.415h-3.397V143.793z
					 M159.537,148.223h3.435v-3.416h-3.435V148.223z M164.054,148.223h3.398v-3.416h-3.398V148.223z M181.981,148.223h3.431v-3.416
					h-3.431V148.223z M186.495,148.223h3.397v-3.416h-3.397V148.223z"/>
			</g>
		</g>
		<g>
			<path fill="#FCFAFC" d="M243.055,120.914c0,2.037-1.599,3.635-3.679,3.635c-2.059,0-3.701-1.598-3.701-3.635
				c0-1.993,1.643-3.591,3.701-3.591C241.456,117.323,243.055,118.921,243.055,120.914z M236.595,120.914
				c0,1.599,1.182,2.869,2.803,2.869c1.577,0,2.737-1.27,2.737-2.847c0-1.599-1.16-2.891-2.759-2.891
				C237.776,118.045,236.595,119.337,236.595,120.914z M238.807,122.797h-0.833v-3.591c0.329-0.066,0.789-0.109,1.38-0.109
				c0.68,0,0.985,0.109,1.249,0.263c0.196,0.153,0.35,0.438,0.35,0.788c0,0.395-0.307,0.701-0.744,0.832v0.044
				c0.35,0.131,0.547,0.394,0.656,0.876c0.11,0.547,0.176,0.767,0.263,0.898h-0.897c-0.109-0.131-0.175-0.46-0.284-0.876
				c-0.066-0.394-0.285-0.569-0.745-0.569h-0.394V122.797z M238.828,120.761h0.395c0.459,0,0.832-0.153,0.832-0.525
				c0-0.329-0.241-0.547-0.767-0.547c-0.219,0-0.372,0.021-0.46,0.044V120.761z"/>
		</g>
	</g>
</g>
</svg>
